<svg width="41" height="64" viewBox="0 0 41 64" fill="none" xmlns="http://www.w3.org/2000/svg">
<rect x="3.5" y="3.5" width="34" height="57" rx="16.9328" stroke="white" stroke-width="7"/>
<circle cx="20.5" cy="19.5" r="10.5" fill="white"/>
<path fill-rule="evenodd" clip-rule="evenodd" d="M20.3582 33.7164C28.288 33.7164 34.7164 27.288 34.7164 19.3582C34.7164 11.4284 28.288 5 20.3582 5C12.4284 5 6 11.4284 6 19.3582C6 27.288 12.4284 33.7164 20.3582 33.7164ZM17.9797 26.3439C19.9145 24.5506 20.9483 23.6474 21.0818 23.6345C24.3088 23.3143 26.8179 20.8792 26.8179 17.9235C26.8179 14.7504 23.9247 12.1774 20.3567 12.1774C16.7887 12.1774 13.8955 14.7504 13.8955 17.9242C13.8955 19.9129 15.1217 21.6624 16.7564 22.6955C16.7675 22.7024 16.7648 22.724 16.7606 22.7584C16.7561 22.7952 16.7497 22.8467 16.7564 22.9108C16.7815 23.1485 16.788 24.1155 16.7736 25.8112C16.7724 25.9514 16.8122 26.089 16.8883 26.2068C16.9643 26.3246 17.0732 26.4176 17.2014 26.4743C17.3297 26.5309 17.4718 26.5488 17.6101 26.5256C17.7484 26.5024 17.8769 26.4393 17.9797 26.3439ZM20.9396 22.2051C20.3754 22.2611 20.1392 22.4004 18.2173 24.1686H18.2166C18.2159 23.5268 18.2087 23.1032 18.1929 22.8663C18.1961 22.8305 18.1983 22.7946 18.1994 22.7587C18.2116 22.2841 18.086 21.8376 17.5238 21.4822C16.1749 20.6279 15.3313 19.2825 15.3313 17.9235C15.3313 15.5839 17.5461 13.6139 20.3567 13.6139C23.1673 13.6139 25.3821 15.5831 25.3821 17.9235C25.3821 20.0816 23.4897 21.9517 20.9396 22.2051ZM21.4952 18.9359C21.7644 19.2052 22.1296 19.3565 22.5104 19.3565C22.8912 19.3565 23.2564 19.2052 23.5257 18.9359C23.795 18.6667 23.9463 18.3015 23.9463 17.9207C23.9463 17.5398 23.795 17.1746 23.5257 16.9054C23.2564 16.6361 22.8912 16.4848 22.5104 16.4848C22.1296 16.4848 21.7644 16.6361 21.4952 16.9054C21.2259 17.1746 21.0746 17.5398 21.0746 17.9207C21.0746 18.3015 21.2259 18.6667 21.4952 18.9359ZM17.1877 18.9359C17.457 19.2052 17.8222 19.3565 18.203 19.3565C18.5838 19.3565 18.949 19.2052 19.2182 18.9359C19.4875 18.6667 19.6388 18.3015 19.6388 17.9207C19.6388 17.5398 19.4875 17.1746 19.2182 16.9054C18.949 16.6361 18.5838 16.4848 18.203 16.4848C17.8222 16.4848 17.457 16.6361 17.1877 16.9054C16.9184 17.1746 16.7671 17.5398 16.7671 17.9207C16.7671 18.3015 16.9184 18.6667 17.1877 18.9359Z" fill="#ED70C7"/>
</svg>
